<?xml version="1.0" encoding="utf-8"?>
<!-- Generator: Adobe Illustrator 28.1.0, SVG Export Plug-In . SVG Version: 6.00 Build 0)  -->
<svg version="1.1" id="Layer_1" xmlns="http://www.w3.org/2000/svg" xmlns:xlink="http://www.w3.org/1999/xlink" x="0px" y="0px"
	 viewBox="0 0 600 600" style="enable-background:new 0 0 600 600;" xml:space="preserve">
<style type="text/css">
	.st0{clip-path:url(#SVGID_00000013916063098619761690000002594888265268660655_);fill:#004B8D;}
	.st1{clip-path:url(#SVGID_00000013916063098619761690000002594888265268660655_);}
	.st2{fill:#00A160;}
	.st3{fill:#FFFFFF;}
	.st4{fill:#CFAB7A;}
	.st5{fill:#004B8D;}
</style>
<g>
	<defs>
		<rect id="SVGID_1_" x="0" width="600" height="600"/>
	</defs>
	<clipPath id="SVGID_00000172401752737614791920000005961249452517415102_">
		<use xlink:href="#SVGID_1_"  style="overflow:visible;"/>
	</clipPath>
	
		<rect x="0" style="clip-path:url(#SVGID_00000172401752737614791920000005961249452517415102_);fill:#004B8D;" width="600" height="600"/>
	<g style="clip-path:url(#SVGID_00000172401752737614791920000005961249452517415102_);">
		<g>
			<path class="st2" d="M165.94,496.6l7.61-5.12l6.34,9.43l-3.64,2.45l6.34,9.43l-7.61,5.12l-6.34-9.43l3.64-2.45L165.94,496.6
				L165.94,496.6z M173.49,474.95l7.67,11.42l-7.61,5.12l-7.67-11.42L173.49,474.95z M198.92,488.12l6.34,9.43l-7.61,5.12
				l-6.34-9.43l-3.81,2.56l-6.34-9.43l7.61-5.12l6.34,9.43L198.92,488.12z"/>
		</g>
		<path class="st3" d="M226.31,478.84l1.89,2.81l4.14-2.78l13.9,20.68l-5.63,3.78l1.89,2.81l-8.27,5.56l-1.89-2.81l-5.63,3.78
			l-7.45-11.09l5.63-3.78l5.67,8.44l8.27-5.56l-11.23-16.71l-8.27,5.56l-3.78-5.63l8.27-5.56l-9.34-13.9l-8.27,5.56l4.78,7.11
			l-5.63,3.78l-6.56-9.76l5.63-3.78l-1.89-2.81l8.27-5.56l1.89,2.81l5.63-3.78l12.12,18.03L226.31,478.84L226.31,478.84z"/>
		<g>
			<polygon class="st3" points="168.42,655.38 161.53,645.12 141.01,658.91 75.4,561.29 95.92,547.5 89.02,537.25 125.26,512.89 
				132.15,523.15 152.67,509.36 173.57,540.47 147.6,557.92 137.25,542.54 111.94,559.55 156.42,625.73 181.74,608.72 
				171.39,593.33 197.37,575.87 218.28,606.98 197.76,620.77 204.65,631.02 			"/>
			<path class="st4" d="M124.33,517.6l6.78,10.09l20.52-13.79l17.24,25.64l-20.52,13.79l-10.23-15.22l-30.77,20.68l48.15,71.64
				l30.77-20.68l-10.34-15.39l20.52-13.79l17.13,25.48l-20.52,13.79l6.89,10.26l-30.61,20.57l-6.89-10.26l-20.52,13.79L80.1,562.22
				l20.52-13.79l-6.89-10.26L124.33,517.6 M126.12,508.47l-5.44,3.66l-30.65,20.6l-5.44,3.66l3.69,5.49l3.21,4.77l-15.06,10.12
				l-5.46,3.67l3.66,5.45l61.84,92.01l3.66,5.45l5.3-3.56l15.05-10.12l3.22,4.79l3.68,5.47l5.46-3.67l30.77-20.68l5.46-3.67
				l-3.68-5.47l-3.22-4.79l15.06-10.12l5.46-3.67l-3.66-5.44l-17.15-25.51l-3.66-5.44l-5.46,3.67l-20.51,13.79l-5.46,3.67l3.69,5.5
				l6.65,9.89l-19.85,13.34l-40.81-60.72l19.85-13.34l6.56,9.75l3.67,5.47l5.46-3.67L172.54,545l5.46-3.67l-3.67-5.47l-17.23-25.63
				l-3.67-5.47l-5.52,3.71l-14.99,10.08l-3.17-4.71L126.12,508.47L126.12,508.47z"/>
			<path class="st5" d="M124.33,517.6l6.78,10.09l20.52-13.79l17.24,25.64l-20.52,13.79l-10.23-15.22l-30.77,20.68l48.15,71.64
				l30.77-20.68l-10.34-15.39l20.52-13.79l17.13,25.48l-20.52,13.79l6.89,10.26l-30.61,20.57l-6.89-10.26l-20.52,13.79L80.1,562.22
				l20.52-13.79l-6.89-10.26L124.33,517.6 M125.26,512.89l-2.8,1.88l-30.63,20.59l-2.8,1.88l1.91,2.84l4.98,7.41l-17.7,11.9
				l-2.81,1.89l1.89,2.81l61.83,92l1.89,2.81l2.65-1.78l17.7-11.9l5,7.44l1.89,2.82l2.81-1.89l30.77-20.68l2.81-1.89l-1.89-2.82
				l-5-7.44l17.7-11.9l2.81-1.89l-1.88-2.8l-17.14-25.5l-1.88-2.8l-2.81,1.89l-20.52,13.79l-2.81,1.89l1.91,2.85l8.43,12.54
				l-25.15,16.9l-44.37-66.01l25.15-16.9l8.34,12.4l1.89,2.82l2.81-1.89l20.52-13.79l2.81-1.89l-1.89-2.82l-17.23-25.64l-1.89-2.82
				l-2.89,1.95l-17.62,11.84l-4.92-7.32L125.26,512.89L125.26,512.89z"/>
		</g>
	</g>
	<g style="clip-path:url(#SVGID_00000172401752737614791920000005961249452517415102_);">
		<g>
			<path class="st2" d="M486.84,533.34l9.96,6.86l-8.5,12.34l-4.76-3.28l-8.5,12.34l-9.96-6.86l8.5-12.34l4.76,3.28L486.84,533.34
				L486.84,533.34z M517.04,532.11l-10.28,14.94l-9.96-6.86l10.28-14.94L517.04,532.11z M513.2,569.68l-8.5,12.34l-9.96-6.86
				l8.5-12.34l-4.98-3.43l8.5-12.34l9.96,6.86l-8.5,12.34L513.2,569.68z"/>
		</g>
		<path class="st3" d="M537.86,598.77l-2.53,3.68l5.41,3.73l-18.63,27.07l-7.36-5.07l-2.53,3.68l-10.83-7.45l2.53-3.68l-7.36-5.07
			l9.99-14.51l7.36,5.07l-7.6,11.04l10.83,7.45l15.05-21.87l-10.83-7.45l5.07-7.36l10.83,7.45l12.52-18.19l-10.83-7.45l-6.41,9.31
			l-7.36-5.07l8.79-12.78l7.36,5.07l2.53-3.68l10.83,7.45l-2.53,3.68l7.36,5.07l-16.25,23.6L537.86,598.77L537.86,598.77z"/>
		<g>
			<polygon class="st3" points="293.3,613.29 302.54,599.87 275.69,581.39 363.63,453.64 390.48,472.12 399.72,458.69 
				447.14,491.33 437.9,504.76 464.75,523.24 436.73,563.95 402.73,540.55 416.6,520.41 383.47,497.61 323.85,584.22 356.98,607.02 
				370.84,586.88 404.83,610.28 376.81,650.99 349.96,632.51 340.72,645.94 			"/>
			<path class="st4" d="M440.93,492.48l-9.09,13.21l26.85,18.48l-23.1,33.56l-26.85-18.48l13.71-19.92l-40.27-27.72l-64.54,93.76
				l40.27,27.72l13.86-20.14l26.85,18.48l-22.95,33.35l-26.85-18.48l-9.24,13.42l-40.06-27.57l9.24-13.42l-26.85-18.48l82.87-120.39
				l26.85,18.48l9.24-13.42L440.93,492.48 M452.99,490.25l-7.12-4.9l-40.11-27.61l-7.12-4.9l-4.94,7.18l-4.3,6.24l-19.7-13.56
				l-7.15-4.92l-4.91,7.14l-82.88,120.41l-4.91,7.14l6.93,4.77l19.7,13.56l-4.31,6.27l-4.93,7.16l7.15,4.92l40.27,27.72l7.15,4.92
				l4.93-7.16l4.31-6.27l19.7,13.56l7.15,4.92l4.9-7.12l22.98-33.39l4.9-7.12l-7.15-4.92l-26.85-18.48l-7.15-4.92l-4.95,7.19
				l-8.91,12.95l-25.98-17.89l54.7-79.47l25.98,17.89l-8.79,12.77l-4.93,7.16l7.15,4.92l26.85,18.48l7.15,4.92l4.93-7.16
				l23.09-33.54l4.93-7.16l-7.23-4.97l-19.62-13.51l4.24-6.16L452.99,490.25L452.99,490.25z"/>
			<path class="st5" d="M440.93,492.48l-9.09,13.21l26.85,18.48l-23.1,33.56l-26.85-18.48l13.71-19.92l-40.27-27.72l-64.54,93.76
				l40.27,27.72l13.86-20.14l26.85,18.48l-22.95,33.35l-26.85-18.48l-9.24,13.42l-40.06-27.57l9.24-13.42l-26.85-18.48l82.87-120.39
				l26.85,18.48l9.24-13.42L440.93,492.48 M447.14,491.33l-3.66-2.52l-40.09-27.6l-3.66-2.52l-2.56,3.72l-6.68,9.7l-23.17-15.95
				l-3.68-2.53l-2.53,3.68l-82.88,120.4l-2.53,3.68l3.47,2.39l23.17,15.95l-6.7,9.74l-2.54,3.69l3.68,2.53l40.27,27.72l3.68,2.53
				l2.54-3.69l6.7-9.74l23.17,15.95l3.68,2.53l2.52-3.67l22.97-33.37l2.52-3.67l-3.68-2.53l-26.85-18.48l-3.68-2.53l-2.57,3.73
				l-11.3,16.41l-32.91-22.65l59.47-86.4l32.91,22.65l-11.17,16.23l-2.54,3.69l3.68,2.53l26.85,18.48l3.68,2.53l2.54-3.69
				l23.09-33.55l2.54-3.69l-3.79-2.61l-23.06-15.87l6.59-9.58L447.14,491.33L447.14,491.33z"/>
		</g>
	</g>
	<g style="clip-path:url(#SVGID_00000172401752737614791920000005961249452517415102_);">
		<g>
			<path class="st2" d="M165.94-103.4l7.61-5.12l6.34,9.43l-3.64,2.45l6.34,9.43l-7.61,5.12l-6.34-9.43l3.64-2.45L165.94-103.4
				L165.94-103.4z M173.49-125.05l7.67,11.42l-7.61,5.12l-7.67-11.42L173.49-125.05z M198.92-111.88l6.34,9.43l-7.61,5.12
				l-6.34-9.43l-3.81,2.56l-6.34-9.43l7.61-5.12l6.34,9.43L198.92-111.88z"/>
		</g>
		<path class="st3" d="M226.31-121.16l1.89,2.81l4.14-2.78l13.9,20.68l-5.63,3.78l1.89,2.81l-8.27,5.56l-1.89-2.81l-5.63,3.78
			l-7.45-11.09l5.63-3.78l5.67,8.44l8.27-5.56l-11.23-16.71l-8.27,5.56l-3.78-5.63l8.27-5.56l-9.34-13.9l-8.27,5.56l4.78,7.11
			l-5.63,3.78l-6.56-9.76l5.63-3.78l-1.89-2.81l8.27-5.56l1.89,2.81l5.63-3.78l12.12,18.03L226.31-121.16L226.31-121.16z"/>
		<g>
			<polygon class="st3" points="168.42,55.38 161.53,45.12 141.01,58.91 75.4,-38.71 95.92,-52.5 89.02,-62.75 125.26,-87.11 
				132.15,-76.85 152.67,-90.64 173.57,-59.53 147.6,-42.08 137.25,-57.46 111.94,-40.45 156.42,25.73 181.74,8.72 171.39,-6.67 
				197.37,-24.13 218.28,6.98 197.76,20.77 204.65,31.02 			"/>
			<path class="st4" d="M124.33-82.4l6.78,10.09l20.52-13.79l17.24,25.64l-20.52,13.79l-10.23-15.22L107.35-41.2l48.15,71.64
				l30.77-20.68L175.93-5.64l20.52-13.79l17.13,25.48l-20.52,13.79l6.89,10.26l-30.61,20.57l-6.89-10.26l-20.52,13.79L80.1-37.78
				l20.52-13.79l-6.89-10.26L124.33-82.4 M126.12-91.53l-5.44,3.66l-30.65,20.6l-5.44,3.66l3.69,5.49l3.21,4.77L76.43-43.25
				l-5.46,3.67l3.66,5.45l61.84,92.01l3.66,5.45l5.3-3.56l15.05-10.12l3.22,4.79l3.68,5.47l5.46-3.67l30.77-20.68l5.46-3.67
				l-3.68-5.47l-3.22-4.79l15.06-10.12l5.46-3.67l-3.66-5.44L201.9-23.11l-3.66-5.44l-5.46,3.67L172.26-11.1l-5.46,3.67l3.69,5.5
				l6.65,9.89l-19.85,13.34l-40.81-60.72l19.85-13.34l6.56,9.75l3.67,5.47l5.46-3.67L172.54-55l5.46-3.67l-3.67-5.47L157.1-89.76
				l-3.67-5.47l-5.52,3.71l-14.99,10.08l-3.17-4.71L126.12-91.53L126.12-91.53z"/>
			<path class="st5" d="M124.33-82.4l6.78,10.09l20.52-13.79l17.24,25.64l-20.52,13.79l-10.23-15.22L107.35-41.2l48.15,71.64
				l30.77-20.68L175.93-5.64l20.52-13.79l17.13,25.48l-20.52,13.79l6.89,10.26l-30.61,20.57l-6.89-10.26l-20.52,13.79L80.1-37.78
				l20.52-13.79l-6.89-10.26L124.33-82.4 M125.26-87.11l-2.8,1.88L91.82-64.64l-2.8,1.88l1.91,2.84l4.98,7.41l-17.7,11.9l-2.81,1.89
				l1.89,2.81l61.83,92l1.89,2.81l2.65-1.78l17.7-11.9l5,7.44l1.89,2.82l2.81-1.89l30.77-20.68l2.81-1.89l-1.89-2.82l-5-7.44
				l17.7-11.9l2.81-1.89l-1.88-2.8l-17.14-25.5l-1.88-2.8l-2.81,1.89L174.04-8.45l-2.81,1.89l1.91,2.85l8.43,12.54l-25.15,16.9
				l-44.37-66.01l25.15-16.9l8.34,12.4l1.89,2.82l2.81-1.89l20.52-13.79l2.81-1.89l-1.89-2.82l-17.23-25.64l-1.89-2.82l-2.89,1.95
				l-17.62,11.84l-4.92-7.32L125.26-87.11L125.26-87.11z"/>
		</g>
	</g>
	<g style="clip-path:url(#SVGID_00000172401752737614791920000005961249452517415102_);">
		<g>
			<path class="st2" d="M486.84-66.66l9.96,6.86l-8.5,12.34l-4.76-3.28l-8.5,12.34l-9.96-6.86l8.5-12.34l4.76,3.28L486.84-66.66
				L486.84-66.66z M517.04-67.89l-10.28,14.94l-9.96-6.86l10.28-14.94L517.04-67.89z M513.2-30.32l-8.5,12.34l-9.96-6.86l8.5-12.34
				l-4.98-3.43l8.5-12.34l9.96,6.86l-8.5,12.34L513.2-30.32z"/>
		</g>
		<path class="st3" d="M537.86-1.23l-2.53,3.68l5.41,3.73L522.1,33.24l-7.36-5.07l-2.53,3.68l-10.83-7.45l2.53-3.68l-7.36-5.07
			l9.99-14.51l7.36,5.07l-7.6,11.04l10.83,7.45l15.05-21.87l-10.83-7.45l5.07-7.36l10.83,7.45l12.52-18.19l-10.83-7.45l-6.41,9.31
			l-7.36-5.07l8.79-12.78l7.36,5.07l2.53-3.68l10.83,7.45l-2.53,3.68l7.36,5.07L543.27,2.5L537.86-1.23L537.86-1.23z"/>
		<g>
			<polygon class="st3" points="293.3,13.29 302.54,-0.13 275.69,-18.61 363.63,-146.36 390.48,-127.88 399.72,-141.31 
				447.14,-108.67 437.9,-95.24 464.75,-76.76 436.73,-36.05 402.73,-59.45 416.6,-79.59 383.47,-102.39 323.85,-15.78 356.98,7.02 
				370.84,-13.12 404.83,10.28 376.81,50.99 349.96,32.51 340.72,45.94 			"/>
			<path class="st4" d="M440.93-107.52l-9.09,13.21l26.85,18.48l-23.1,33.56l-26.85-18.48l13.71-19.92l-40.27-27.72l-64.54,93.76
				l40.27,27.72l13.86-20.14l26.85,18.48l-22.95,33.35L348.82,26.3l-9.24,13.42l-40.06-27.57l9.24-13.42l-26.85-18.48l82.87-120.39
				l26.85,18.48l9.24-13.42L440.93-107.52 M452.99-109.75l-7.12-4.9l-40.11-27.61l-7.12-4.9l-4.94,7.18l-4.3,6.24l-19.7-13.56
				l-7.15-4.92l-4.91,7.14L274.76-24.67l-4.91,7.14l6.93,4.77l19.7,13.56l-4.31,6.27l-4.93,7.16l7.15,4.92l40.27,27.72l7.15,4.92
				l4.93-7.16l4.31-6.27l19.7,13.56l7.15,4.92l4.9-7.12l22.98-33.39l4.9-7.12l-7.15-4.92l-26.85-18.48l-7.15-4.92l-4.95,7.19
				l-8.91,12.95L329.7-16.86l54.7-79.47l25.98,17.89l-8.79,12.77l-4.93,7.16l7.15,4.92l26.85,18.48l7.15,4.92l4.93-7.16l23.09-33.54
				l4.93-7.16l-7.23-4.97L443.9-96.54l4.24-6.16L452.99-109.75L452.99-109.75z"/>
			<path class="st5" d="M440.93-107.52l-9.09,13.21l26.85,18.48l-23.1,33.56l-26.85-18.48l13.71-19.92l-40.27-27.72l-64.54,93.76
				l40.27,27.72l13.86-20.14l26.85,18.48l-22.95,33.35L348.82,26.3l-9.24,13.42l-40.06-27.57l9.24-13.42l-26.85-18.48l82.87-120.39
				l26.85,18.48l9.24-13.42L440.93-107.52 M447.14-108.67l-3.66-2.52l-40.09-27.6l-3.66-2.52l-2.56,3.72l-6.68,9.7l-23.17-15.95
				l-3.68-2.53l-2.53,3.68l-82.88,120.4l-2.53,3.68l3.47,2.39l23.17,15.95l-6.7,9.74l-2.54,3.69l3.68,2.53l40.27,27.72l3.68,2.53
				l2.54-3.69l6.7-9.74l23.17,15.95l3.68,2.53l2.52-3.67l22.97-33.37l2.52-3.67l-3.68-2.53L374.3-10.73l-3.68-2.53l-2.57,3.73
				l-11.3,16.41l-32.91-22.65l59.47-86.4l32.91,22.65l-11.17,16.23l-2.54,3.69l3.68,2.53l26.85,18.48l3.68,2.53l2.54-3.69
				l23.09-33.55l2.54-3.69l-3.79-2.61l-23.06-15.87l6.59-9.58L447.14-108.67L447.14-108.67z"/>
		</g>
	</g>
	<g style="clip-path:url(#SVGID_00000172401752737614791920000005961249452517415102_);">
		<g>
			<path class="st2" d="M411.89,134.5l14.96,3.26l-4.04,18.54l-7.15-1.56l-4.04,18.54l-14.96-3.26l4.04-18.54l7.15,1.56
				L411.89,134.5L411.89,134.5z M446.71,118.59l-4.9,22.44l-14.96-3.26l4.9-22.44L446.71,118.59z M460.21,164.47L456.17,183
				l-14.96-3.26l4.04-18.54l-7.48-1.63l4.04-18.54l14.96,3.26l-4.04,18.54L460.21,164.47z"/>
		</g>
		<path class="st3" d="M503.04,186.76l-1.21,5.53l8.13,1.77l-8.87,40.65l-11.06-2.41l-1.21,5.53l-16.26-3.55l1.21-5.53l-11.06-2.41
			l4.75-21.79l11.06,2.41l-3.62,16.59l16.26,3.55l7.17-32.85l-16.26-3.55l2.41-11.06l16.26,3.55l5.96-27.32l-16.26-3.55l-3.05,13.98
			l-11.06-2.41l4.19-19.19l11.06,2.41l1.21-5.53l16.26,3.55l-1.21,5.53l11.06,2.41l-7.73,35.45L503.04,186.76L503.04,186.76z"/>
		<g>
			<polygon class="st3" points="223.36,320.95 227.76,300.78 187.43,291.99 229.3,100.11 269.62,108.91 274.02,88.75 345.24,104.29 
				340.84,124.45 381.17,133.25 367.83,194.39 316.77,183.25 323.37,153.01 273.61,142.15 245.23,272.23 294.99,283.09 
				301.59,252.84 352.64,263.98 339.3,325.12 298.98,316.32 294.58,336.49 			"/>
			<path class="st4" d="M338.51,108.61l-4.33,19.84l40.33,8.8l-11,50.41l-40.33-8.8l6.53-29.92l-60.49-13.2L238.5,276.55l60.49,13.2
				l6.6-30.24l40.33,8.8l-10.93,50.08l-40.33-8.8l-4.4,20.16l-60.16-13.13l4.4-20.16l-40.33-8.8l39.45-180.81l40.33,8.8l4.4-20.16
				L338.51,108.61 M351.58,100.22l-10.69-2.33l-60.25-13.15l-10.69-2.33L267.6,93.2l-2.05,9.38l-29.59-6.46l-10.73-2.34l-2.34,10.72
				l-39.46,180.85l-2.34,10.72l10.41,2.27l29.59,6.46l-2.05,9.41l-2.35,10.75l10.73,2.34l60.49,13.2l10.73,2.34l2.35-10.75
				l2.05-9.41l29.59,6.46l10.73,2.34l2.33-10.7l10.94-50.15l2.33-10.7l-10.73-2.34l-40.32-8.8l-10.73-2.34l-2.36,10.8l-4.24,19.44
				l-39.02-8.51l26.04-119.35l39.02,8.51l-4.18,19.17l-2.34,10.75l10.73,2.34l40.32,8.8l10.73,2.34l2.34-10.75l10.99-50.38
				l2.34-10.75l-10.85-2.37l-29.47-6.43l2.02-9.26L351.58,100.22L351.58,100.22z"/>
			<path class="st5" d="M338.51,108.61l-4.33,19.84l40.33,8.8l-11,50.41l-40.33-8.8l6.53-29.92l-60.49-13.2L238.5,276.55l60.49,13.2
				l6.6-30.24l40.33,8.8l-10.93,50.08l-40.33-8.8l-4.4,20.16l-60.16-13.13l4.4-20.16l-40.33-8.8l39.45-180.81l40.33,8.8l4.4-20.16
				L338.51,108.61 M345.24,104.29l-5.5-1.2l-60.21-13.14l-5.5-1.2l-1.22,5.59l-3.18,14.57l-34.8-7.59l-5.53-1.21l-1.2,5.52
				l-39.46,180.83l-1.2,5.52l5.21,1.14l34.8,7.59l-3.19,14.62l-1.21,5.54l5.53,1.21l60.49,13.2l5.53,1.21l1.21-5.54l3.19-14.62
				l34.8,7.59l5.53,1.21l1.2-5.51l10.94-50.12l1.2-5.51l-5.53-1.21l-40.32-8.8l-5.53-1.21l-1.22,5.6l-5.38,24.65l-49.43-10.79
				l28.31-129.76l49.43,10.79l-5.32,24.38l-1.21,5.54l5.53,1.21l40.32,8.8l5.53,1.21l1.21-5.54l10.99-50.39l1.21-5.54l-5.69-1.24
				l-34.64-7.56l3.14-14.39L345.24,104.29L345.24,104.29z"/>
		</g>
	</g>
	<g style="clip-path:url(#SVGID_00000172401752737614791920000005961249452517415102_);">
		<g>
			<path class="st2" d="M45.51,108.49l8.51-1.82l2.26,10.54l-4.07,0.87l2.26,10.54l-8.51,1.82L43.7,119.9l4.07-0.87L45.51,108.49
				L45.51,108.49z M59.79,92.08l2.73,12.76l-8.51,1.82L51.29,93.9L59.79,92.08z M77.54,112.65l2.26,10.54l-8.51,1.82l-2.26-10.54
				l-4.25,0.91l-2.26-10.54l8.51-1.82l2.26,10.54L77.54,112.65z"/>
		</g>
		<path class="st3" d="M104.94,114.14l0.67,3.14l4.62-0.99l4.95,23.12l-6.29,1.35l0.67,3.14l-9.25,1.98l-0.67-3.14l-6.29,1.35
			l-2.65-12.39l6.29-1.35l2.02,9.43l9.25-1.98l-4-18.68l-9.25,1.98l-1.35-6.29l9.25-1.98L99.6,97.29l-9.25,1.98l1.7,7.95l-6.29,1.35
			l-2.34-10.91l6.29-1.35l-0.67-3.14l9.25-1.98l0.67,3.14l6.29-1.35l4.32,20.16L104.94,114.14L104.94,114.14z"/>
		<g>
			<polygon class="st3" points="-8.31,249.22 -10.76,237.76 -33.7,242.67 -57.06,133.54 -34.13,128.63 -36.58,117.17 3.92,108.49 
				6.38,119.96 29.31,115.05 36.76,149.82 7.72,156.04 4.04,138.84 -24.26,144.9 -8.42,218.88 19.88,212.82 16.19,195.62 
				45.23,189.4 52.68,224.17 29.74,229.08 32.2,240.55 			"/>
			<path class="st4" d="M1.45,112.31l2.42,11.28l22.93-4.91l6.14,28.67l-22.93,4.91l-3.64-17.02l-34.4,7.37l17.15,80.08l34.4-7.37
				l-3.68-17.2l22.93-4.91l6.1,28.48l-22.93,4.91l2.46,11.47l-34.22,7.33l-2.46-11.47l-22.93,4.91l-22.02-102.83l22.93-4.91
				l-2.46-11.47L1.45,112.31 M6.25,104.9l-6.08,1.3l-34.26,7.34l-6.08,1.3l1.31,6.13l1.14,5.33l-16.83,3.6l-6.1,1.31l1.3,6.09
				l22.02,102.85l1.3,6.09l5.92-1.27l16.83-3.6l1.15,5.35l1.31,6.12l6.1-1.31l34.4-7.37l6.1-1.31l-1.31-6.12l-1.15-5.35l16.83-3.6
				l6.1-1.31l-1.3-6.08l-6.11-28.52l-1.3-6.08l-6.1,1.31l-22.93,4.91l-6.1,1.31l1.32,6.14l2.37,11.06l-22.19,4.75l-14.53-67.88
				l22.19-4.75l2.33,10.9l1.31,6.11l6.1-1.31l22.93-4.91l6.1-1.31l-1.31-6.11l-6.13-28.65l-1.31-6.11l-6.17,1.32l-16.76,3.59
				l-1.13-5.27L6.25,104.9L6.25,104.9z"/>
			<path class="st5" d="M1.45,112.31l2.42,11.28l22.93-4.91l6.14,28.67l-22.93,4.91l-3.64-17.02l-34.4,7.37l17.15,80.08l34.4-7.37
				l-3.68-17.2l22.93-4.91l6.1,28.48l-22.93,4.91l2.46,11.47l-34.22,7.33l-2.46-11.47l-22.93,4.91l-22.02-102.83l22.93-4.91
				l-2.46-11.47L1.45,112.31 M3.92,108.49l-3.13,0.67l-34.24,7.33l-3.13,0.67l0.68,3.18l1.77,8.29l-19.79,4.24l-3.14,0.67l0.67,3.14
				l22.02,102.84l0.67,3.14l2.96-0.63l19.79-4.24l1.78,8.32l0.67,3.15l3.14-0.67l34.4-7.37l3.14-0.67l-0.67-3.15l-1.78-8.32
				l19.79-4.24l3.14-0.67l-0.67-3.13l-6.1-28.51l-0.67-3.13l-3.14,0.67l-22.93,4.91l-3.14,0.67l0.68,3.18l3,14.02l-28.11,6.02
				l-15.8-73.8l28.11-6.02l2.97,13.87l0.67,3.15l3.14-0.67l22.93-4.91l3.14-0.67l-0.67-3.15l-6.14-28.66l-0.67-3.15l-3.24,0.69
				l-19.7,4.22l-1.75-8.18L3.92,108.49L3.92,108.49z"/>
		</g>
	</g>
	<g style="clip-path:url(#SVGID_00000172401752737614791920000005961249452517415102_);">
		<g>
			<path class="st2" d="M131.38,337.51l12.22,4.14l-5.13,15.14l-5.84-1.98l-5.13,15.14l-12.22-4.14l5.13-15.14l5.84,1.98
				L131.38,337.51L131.38,337.51z M162.03,327.47l-6.21,18.33l-12.22-4.14l6.21-18.33L162.03,327.47z M169.02,367.15l-5.13,15.14
				l-12.22-4.14l5.13-15.14l-6.11-2.07l5.13-15.14l12.22,4.14l-5.13,15.14L169.02,367.15z"/>
		</g>
		<path class="st3" d="M202.78,389.86l-1.53,4.52l6.64,2.25l-11.26,33.21l-9.03-3.06l-1.53,4.52l-13.28-4.5l1.53-4.52l-9.03-3.06
			l6.03-17.8l9.03,3.06l-4.59,13.55l13.28,4.5l9.1-26.83l-13.28-4.5l3.06-9.03l13.28,4.5l7.56-22.31l-13.28-4.5l-3.87,11.42
			l-9.03-3.06l5.31-15.67l9.03,3.06l1.53-4.52l13.28,4.5l-1.53,4.52l9.03,3.06l-9.82,28.96L202.78,389.86L202.78,389.86z"/>
		<g>
			<polygon class="st3" points="-44.07,475.89 -38.48,459.42 -71.42,448.25 -18.29,291.52 14.65,302.68 20.23,286.21 78.41,305.93 
				72.82,322.4 105.76,333.57 88.83,383.51 47.13,369.37 55.5,344.67 14.86,330.89 -21.16,437.15 19.48,450.93 27.86,426.22 
				69.56,440.36 52.64,490.3 19.69,479.14 14.11,495.61 			"/>
			<path class="st4" d="M72.36,308.92l-5.49,16.2l32.94,11.17l-13.96,41.18L52.91,366.3l8.28-24.44l-49.41-16.75l-38.99,115.03
				l49.41,16.75l8.37-24.71l32.94,11.17l-13.87,40.91l-32.94-11.17l-5.58,16.47l-49.14-16.66l5.58-16.47l-32.94-11.17l50.07-147.7
				l32.94,11.17l5.58-16.47L72.36,308.92 M84.1,303.12l-8.73-2.96l-49.21-16.68l-8.73-2.96l-2.99,8.81l-2.6,7.66l-24.17-8.19
				l-8.77-2.97l-2.97,8.75L-74.15,442.3l-2.97,8.75l8.5,2.88l24.17,8.19l-2.61,7.69l-2.98,8.78l8.77,2.97l49.41,16.75l8.77,2.97
				l2.98-8.78l2.61-7.69l24.17,8.19l8.77,2.97l2.96-8.74l13.89-40.97l2.96-8.74l-8.77-2.97l-32.94-11.17l-8.77-2.97l-2.99,8.82
				l-5.38,15.88l-31.88-10.81l33.05-97.49l31.88,10.81l-5.31,15.66l-2.98,8.78l8.77,2.97l32.94,11.17l8.77,2.97l2.98-8.78
				l13.95-41.15l2.98-8.78l-8.86-3l-24.08-8.16l2.56-7.56L84.1,303.12L84.1,303.12z"/>
			<path class="st5" d="M72.36,308.92l-5.49,16.2l32.94,11.17l-13.96,41.18L52.91,366.3l8.28-24.44l-49.41-16.75l-38.99,115.03
				l49.41,16.75l8.37-24.71l32.94,11.17l-13.87,40.91l-32.94-11.17l-5.58,16.47l-49.14-16.66l5.58-16.47l-32.94-11.17l50.07-147.7
				l32.94,11.17l5.58-16.47L72.36,308.92 M78.41,305.93l-4.5-1.52l-49.18-16.67l-4.5-1.52l-1.55,4.57l-4.04,11.9l-28.42-9.64
				l-4.52-1.53l-1.53,4.51l-50.07,147.71l-1.53,4.51l4.25,1.44l28.42,9.63l-4.05,11.95l-1.53,4.52l4.52,1.53L9.6,494.08l4.52,1.53
				l1.53-4.52l4.05-11.95l28.42,9.64l4.52,1.53l1.53-4.5l13.88-40.94l1.53-4.5l-4.52-1.53l-32.94-11.17l-4.52-1.53l-1.55,4.57
				l-6.82,20.13l-40.38-13.69l35.93-105.99l40.38,13.69l-6.75,19.92l-1.53,4.52l4.52,1.53l32.94,11.17l4.52,1.53l1.53-4.52
				l13.95-41.16l1.53-4.52l-4.65-1.58l-28.29-9.59l3.98-11.75L78.41,305.93L78.41,305.93z"/>
		</g>
	</g>
	<g style="clip-path:url(#SVGID_00000172401752737614791920000005961249452517415102_);">
		<g>
			<path class="st2" d="M645.51,108.49l8.51-1.82l2.26,10.54l-4.07,0.87l2.26,10.54l-8.51,1.82l-2.26-10.54l4.07-0.87L645.51,108.49
				L645.51,108.49z M659.79,92.08l2.73,12.76l-8.51,1.82l-2.73-12.76L659.79,92.08z M677.54,112.65l2.26,10.54l-8.51,1.82
				l-2.26-10.54l-4.25,0.91l-2.26-10.54l8.51-1.82l2.26,10.54L677.54,112.65z"/>
		</g>
		<path class="st3" d="M704.94,114.14l0.67,3.14l4.62-0.99l4.95,23.12l-6.29,1.35l0.67,3.14l-9.25,1.98l-0.67-3.14l-6.29,1.35
			l-2.65-12.39l6.29-1.35l2.02,9.43l9.25-1.98l-4-18.68l-9.25,1.98l-1.35-6.29l9.25-1.98l-3.33-15.54l-9.25,1.98l1.7,7.95
			l-6.29,1.35l-2.34-10.91l6.29-1.35l-0.67-3.14l9.25-1.98l0.67,3.14l6.29-1.35l4.32,20.16L704.94,114.14L704.94,114.14z"/>
		<g>
			<polygon class="st3" points="591.69,249.22 589.24,237.76 566.3,242.67 542.94,133.54 565.87,128.63 563.42,117.17 
				603.92,108.49 606.38,119.96 629.31,115.05 636.76,149.82 607.72,156.04 604.04,138.84 575.74,144.9 591.58,218.88 
				619.88,212.82 616.19,195.62 645.23,189.4 652.68,224.17 629.74,229.08 632.2,240.55 			"/>
			<path class="st4" d="M601.45,112.31l2.42,11.28l22.93-4.91l6.14,28.67l-22.93,4.91l-3.64-17.02l-34.4,7.37l17.15,80.08l34.4-7.37
				l-3.68-17.2l22.93-4.91l6.1,28.48l-22.93,4.91l2.46,11.47l-34.22,7.33l-2.46-11.47l-22.93,4.91l-22.02-102.83l22.93-4.91
				l-2.46-11.47L601.45,112.31 M606.25,104.9l-6.08,1.3l-34.26,7.34l-6.08,1.3l1.31,6.13l1.14,5.33l-16.83,3.6l-6.1,1.31l1.3,6.09
				l22.02,102.85l1.3,6.09l5.92-1.27l16.83-3.6l1.15,5.35l1.31,6.12l6.1-1.31l34.4-7.37l6.1-1.31l-1.31-6.12l-1.15-5.35l16.83-3.6
				l6.1-1.31l-1.3-6.08l-6.11-28.52l-1.3-6.08l-6.1,1.31l-22.93,4.91l-6.1,1.31l1.32,6.14l2.37,11.06l-22.19,4.75l-14.53-67.88
				l22.19-4.75l2.33,10.9l1.31,6.11l6.1-1.31l22.93-4.91l6.1-1.31l-1.31-6.11l-6.13-28.65l-1.31-6.11l-6.17,1.32l-16.76,3.59
				l-1.13-5.27L606.25,104.9L606.25,104.9z"/>
			<path class="st5" d="M601.45,112.31l2.42,11.28l22.93-4.91l6.14,28.67l-22.93,4.91l-3.64-17.02l-34.4,7.37l17.15,80.08l34.4-7.37
				l-3.68-17.2l22.93-4.91l6.1,28.48l-22.93,4.91l2.46,11.47l-34.22,7.33l-2.46-11.47l-22.93,4.91l-22.02-102.83l22.93-4.91
				l-2.46-11.47L601.45,112.31 M603.92,108.49l-3.13,0.67l-34.24,7.33l-3.13,0.67l0.68,3.18l1.77,8.29l-19.79,4.24l-3.14,0.67
				l0.67,3.14l22.02,102.84l0.67,3.14l2.96-0.63l19.79-4.24l1.78,8.32l0.67,3.15l3.14-0.67l34.4-7.37l3.14-0.67l-0.67-3.15
				l-1.78-8.32l19.79-4.24l3.14-0.67l-0.67-3.13l-6.1-28.51l-0.67-3.13l-3.14,0.67l-22.93,4.91l-3.14,0.67l0.68,3.18l3,14.02
				l-28.11,6.02l-15.8-73.8l28.11-6.02l2.97,13.87l0.67,3.15l3.14-0.67l22.93-4.91l3.14-0.67l-0.67-3.15l-6.14-28.66l-0.67-3.15
				l-3.24,0.69l-19.7,4.22l-1.75-8.18L603.92,108.49L603.92,108.49z"/>
		</g>
	</g>
	<g style="clip-path:url(#SVGID_00000172401752737614791920000005961249452517415102_);">
		<g>
			<path class="st2" d="M731.38,337.51l12.22,4.14l-5.13,15.14l-5.84-1.98l-5.13,15.14l-12.22-4.14l5.13-15.14l5.84,1.98
				L731.38,337.51L731.38,337.51z M762.03,327.47l-6.21,18.33l-12.22-4.14l6.21-18.33L762.03,327.47z M769.02,367.15l-5.13,15.14
				l-12.22-4.14l5.13-15.14l-6.11-2.07l5.13-15.14l12.22,4.14l-5.13,15.14L769.02,367.15z"/>
		</g>
		<path class="st3" d="M802.78,389.86l-1.53,4.52l6.64,2.25l-11.26,33.21l-9.03-3.06l-1.53,4.52l-13.28-4.5l1.53-4.52l-9.03-3.06
			l6.03-17.8l9.03,3.06l-4.59,13.55l13.28,4.5l9.09-26.83l-13.28-4.5l3.06-9.03l13.28,4.5l7.56-22.31l-13.28-4.5l-3.87,11.42
			l-9.03-3.06l5.31-15.67l9.03,3.06l1.53-4.52l13.28,4.5l-1.53,4.52l9.03,3.06l-9.82,28.96L802.78,389.86L802.78,389.86z"/>
		<g>
			<polygon class="st3" points="555.93,475.89 561.52,459.42 528.58,448.25 581.71,291.52 614.65,302.68 620.23,286.21 
				678.41,305.93 672.82,322.4 705.76,333.57 688.83,383.51 647.13,369.37 655.5,344.67 614.86,330.89 578.84,437.15 619.48,450.93 
				627.86,426.22 669.56,440.36 652.64,490.3 619.69,479.14 614.11,495.61 			"/>
			<path class="st4" d="M672.36,308.92l-5.49,16.2l32.94,11.17l-13.96,41.18l-32.94-11.17l8.28-24.44l-49.41-16.75l-38.99,115.03
				l49.41,16.75l8.37-24.71l32.94,11.17l-13.87,40.91l-32.94-11.17l-5.58,16.47l-49.14-16.66l5.58-16.47l-32.94-11.17l50.07-147.7
				l32.94,11.17l5.58-16.47L672.36,308.92 M684.1,303.12l-8.73-2.96l-49.21-16.68l-8.73-2.96l-2.99,8.81l-2.6,7.66l-24.17-8.19
				l-8.77-2.97l-2.97,8.75L525.85,442.3l-2.97,8.75l8.5,2.88l24.17,8.19l-2.61,7.69l-2.98,8.78l8.77,2.97l49.41,16.75l8.77,2.97
				l2.98-8.78l2.61-7.69l24.17,8.19l8.77,2.97l2.96-8.74l13.89-40.97l2.96-8.74l-8.77-2.97l-32.94-11.17l-8.77-2.97l-2.99,8.82
				l-5.38,15.88l-31.88-10.81l33.05-97.49l31.88,10.81l-5.31,15.66l-2.98,8.78l8.77,2.97l32.94,11.17l8.77,2.97l2.98-8.78
				l13.95-41.15l2.98-8.78l-8.86-3l-24.08-8.16l2.56-7.56L684.1,303.12L684.1,303.12z"/>
			<path class="st5" d="M672.36,308.92l-5.49,16.2l32.94,11.17l-13.96,41.18l-32.94-11.17l8.28-24.44l-49.41-16.75l-38.99,115.03
				l49.41,16.75l8.37-24.71l32.94,11.17l-13.87,40.91l-32.94-11.17l-5.58,16.47l-49.14-16.66l5.58-16.47l-32.94-11.17l50.07-147.7
				l32.94,11.17l5.58-16.47L672.36,308.92 M678.41,305.93l-4.5-1.52l-49.18-16.67l-4.5-1.52l-1.55,4.57l-4.04,11.9l-28.42-9.64
				l-4.52-1.53l-1.53,4.51l-50.07,147.71l-1.53,4.51l4.25,1.44l28.42,9.63l-4.05,11.95l-1.53,4.52l4.52,1.53l49.41,16.75l4.52,1.53
				l1.53-4.52l4.05-11.95l28.42,9.64l4.52,1.53l1.53-4.5l13.88-40.94l1.53-4.5l-4.52-1.53l-32.94-11.17l-4.52-1.53l-1.55,4.57
				l-6.82,20.13l-40.38-13.69l35.93-105.99l40.38,13.69l-6.75,19.92l-1.53,4.52l4.52,1.53l32.94,11.17l4.52,1.53l1.53-4.52
				l13.95-41.16l1.53-4.52l-4.65-1.58l-28.29-9.59l3.98-11.75L678.41,305.93L678.41,305.93z"/>
		</g>
	</g>
</g>
</svg>
