<?xml version="1.0" encoding="UTF-8"?>
<svg id="Layer_1" data-name="Layer 1" xmlns="http://www.w3.org/2000/svg" xmlns:xlink="http://www.w3.org/1999/xlink" viewBox="0 0 600 600">
  <defs>
    <style>
      .cls-1 {
        fill: none;
      }

      .cls-1, .cls-2, .cls-3, .cls-4, .cls-5 {
        stroke-width: 0px;
      }
<!--  CHANGE FOR BACKGROUND TRANS -->
      .cls-6 {
        opacity: .10;
      }
<!--  CHANGE FOR BACKGROUND TRANS -->
      .cls-2 {
        fill: #00a160;
      }

      .cls-3 {
        fill: #fff;
      }

      .cls-4 {
        fill: #004b8d;
      }

      .cls-5 {
        fill: #cfab7a;
      }

      .cls-7 {
        clip-path: url(#clippath);
      }
    </style>
    <clipPath id="clippath">
      <rect class="cls-1" x="0" width="600" height="600"/>
    </clipPath>
  </defs>
  <g class="cls-6">
    <g class="cls-7">
      <rect class="cls-4" x="0" width="600" height="600"/>
      <g>
        <path class="cls-2" d="M165.94,496.6l7.61-5.12,6.34,9.43-3.64,2.45,6.34,9.43-7.61,5.12-6.34-9.43,3.64-2.45-6.34-9.43h0ZM173.49,474.95l7.67,11.42-7.61,5.12-7.67-11.42,7.61-5.12ZM198.92,488.12l6.34,9.43-7.61,5.12-6.34-9.43-3.81,2.56-6.34-9.43,7.61-5.12,6.34,9.43,3.81-2.56Z"/>
        <path class="cls-3" d="M226.31,478.84l1.89,2.81,4.14-2.78,13.9,20.68-5.63,3.78,1.89,2.81-8.27,5.56-1.89-2.81-5.63,3.78-7.45-11.09,5.63-3.78,5.67,8.44,8.27-5.56-11.23-16.71-8.27,5.56-3.78-5.63,8.27-5.56-9.34-13.9-8.27,5.56,4.78,7.11-5.63,3.78-6.56-9.76,5.63-3.78-1.89-2.81,8.27-5.56,1.89,2.81,5.63-3.78,12.12,18.03-4.14,2.78h0Z"/>
        <g>
          <polygon class="cls-3" points="168.42 655.38 161.53 645.12 141.01 658.91 75.4 561.29 95.92 547.5 89.02 537.25 125.26 512.89 132.15 523.15 152.67 509.36 173.57 540.47 147.6 557.92 137.25 542.54 111.94 559.55 156.42 625.73 181.74 608.72 171.39 593.33 197.37 575.87 218.28 606.98 197.76 620.77 204.65 631.02 168.42 655.38"/>
          <path class="cls-5" d="M124.33,517.6l6.78,10.09,20.52-13.79,17.24,25.64-20.52,13.79-10.23-15.22-30.77,20.68,48.15,71.64,30.77-20.68-10.34-15.39,20.52-13.79,17.13,25.48-20.52,13.79,6.89,10.26-30.61,20.57-6.89-10.26-20.52,13.79-61.83-91.99,20.52-13.79-6.89-10.26,30.61-20.57M126.12,508.47l-5.44,3.66-30.65,20.6-5.44,3.66,3.69,5.49,3.21,4.77-15.06,10.12-5.46,3.67,3.66,5.45,61.84,92.01,3.66,5.45,5.3-3.56,15.05-10.12,3.22,4.79,3.68,5.47,5.46-3.67,30.77-20.68,5.46-3.67-3.68-5.47-3.22-4.79,15.06-10.12,5.46-3.67-3.66-5.44-17.15-25.51-3.66-5.44-5.46,3.67-20.51,13.79-5.46,3.67,3.69,5.5,6.65,9.89-19.85,13.34-40.81-60.72,19.85-13.34,6.56,9.75,3.67,5.47,5.46-3.67,20.51-13.79,5.46-3.67-3.67-5.47-17.23-25.63-3.67-5.47-5.52,3.71-14.99,10.08-3.17-4.71-3.62-5.38h0Z"/>
          <path class="cls-4" d="M124.33,517.6l6.78,10.09,20.52-13.79,17.24,25.64-20.52,13.79-10.23-15.22-30.77,20.68,48.15,71.64,30.77-20.68-10.34-15.39,20.52-13.79,17.13,25.48-20.52,13.79,6.89,10.26-30.61,20.57-6.89-10.26-20.52,13.79-61.83-91.99,20.52-13.79-6.89-10.26,30.61-20.57M125.26,512.89l-2.8,1.88-30.63,20.59-2.8,1.88,1.91,2.84,4.98,7.41-17.7,11.9-2.81,1.89,1.89,2.81,61.83,92,1.89,2.81,2.65-1.78,17.7-11.9,5,7.44,1.89,2.82,2.81-1.89,30.77-20.68,2.81-1.89-1.89-2.82-5-7.44,17.7-11.9,2.81-1.89-1.88-2.8-17.14-25.5-1.88-2.8-2.81,1.89-20.52,13.79-2.81,1.89,1.91,2.85,8.43,12.54-25.15,16.9-44.37-66.01,25.15-16.9,8.34,12.4,1.89,2.82,2.81-1.89,20.52-13.79,2.81-1.89-1.89-2.82-17.23-25.64-1.89-2.82-2.89,1.95-17.62,11.84-4.92-7.32-1.86-2.77h0Z"/>
        </g>
      </g>
      <g>
        <path class="cls-2" d="M486.84,533.34l9.96,6.86-8.5,12.34-4.76-3.28-8.5,12.34-9.96-6.86,8.5-12.34,4.76,3.28,8.5-12.34h0ZM517.04,532.11l-10.28,14.94-9.96-6.86,10.28-14.94,9.96,6.86ZM513.2,569.68l-8.5,12.34-9.96-6.86,8.5-12.34-4.98-3.43,8.5-12.34,9.96,6.86-8.5,12.34,4.98,3.43Z"/>
        <path class="cls-3" d="M537.86,598.77l-2.53,3.68,5.41,3.73-18.63,27.07-7.36-5.07-2.53,3.68-10.83-7.45,2.53-3.68-7.36-5.07,9.99-14.51,7.36,5.07-7.6,11.04,10.83,7.45,15.05-21.87-10.83-7.45,5.07-7.36,10.83,7.45,12.52-18.19-10.83-7.45-6.41,9.31-7.36-5.07,8.79-12.78,7.36,5.07,2.53-3.68,10.83,7.45-2.53,3.68,7.36,5.07-16.25,23.6-5.41-3.73h0Z"/>
        <g>
          <polygon class="cls-3" points="293.3 613.29 302.54 599.87 275.69 581.39 363.63 453.64 390.48 472.12 399.72 458.69 447.14 491.33 437.9 504.76 464.75 523.24 436.73 563.95 402.73 540.55 416.6 520.41 383.47 497.61 323.85 584.22 356.98 607.02 370.84 586.88 404.83 610.28 376.81 650.99 349.96 632.51 340.72 645.94 293.3 613.29"/>
          <path class="cls-5" d="M440.93,492.48l-9.09,13.21,26.85,18.48-23.1,33.56-26.85-18.48,13.71-19.92-40.27-27.72-64.54,93.76,40.27,27.72,13.86-20.14,26.85,18.48-22.95,33.35-26.85-18.48-9.24,13.42-40.06-27.57,9.24-13.42-26.85-18.48,82.87-120.39,26.85,18.48,9.24-13.42,40.06,27.57M452.99,490.25l-7.12-4.9-40.11-27.61-7.12-4.9-4.94,7.18-4.3,6.24-19.7-13.56-7.15-4.92-4.91,7.14-82.88,120.41-4.91,7.14,6.93,4.77,19.7,13.56-4.31,6.27-4.93,7.16,7.15,4.92,40.27,27.72,7.15,4.92,4.93-7.16,4.31-6.27,19.7,13.56,7.15,4.92,4.9-7.12,22.98-33.39,4.9-7.12-7.15-4.92-26.85-18.48-7.15-4.92-4.95,7.19-8.91,12.95-25.98-17.89,54.7-79.47,25.98,17.89-8.79,12.77-4.93,7.16,7.15,4.92,26.85,18.48,7.15,4.92,4.93-7.16,23.09-33.54,4.93-7.16-7.23-4.97-19.62-13.51,4.24-6.16,4.85-7.04h0Z"/>
          <path class="cls-4" d="M440.93,492.48l-9.09,13.21,26.85,18.48-23.1,33.56-26.85-18.48,13.71-19.92-40.27-27.72-64.54,93.76,40.27,27.72,13.86-20.14,26.85,18.48-22.95,33.35-26.85-18.48-9.24,13.42-40.06-27.57,9.24-13.42-26.85-18.48,82.87-120.39,26.85,18.48,9.24-13.42,40.06,27.57M447.14,491.33l-3.66-2.52-40.09-27.6-3.66-2.52-2.56,3.72-6.68,9.7-23.17-15.95-3.68-2.53-2.53,3.68-82.88,120.4-2.53,3.68,3.47,2.39,23.17,15.95-6.7,9.74-2.54,3.69,3.68,2.53,40.27,27.72,3.68,2.53,2.54-3.69,6.7-9.74,23.17,15.95,3.68,2.53,2.52-3.67,22.97-33.37,2.52-3.67-3.68-2.53-26.85-18.48-3.68-2.53-2.57,3.73-11.3,16.41-32.91-22.65,59.47-86.4,32.91,22.65-11.17,16.23-2.54,3.69,3.68,2.53,26.85,18.48,3.68,2.53,2.54-3.69,23.09-33.55,2.54-3.69-3.79-2.61-23.06-15.87,6.59-9.58,2.5-3.63h0Z"/>
        </g>
      </g>
      <g>
        <polygon class="cls-3" points="168.42 55.38 161.53 45.12 141.01 58.91 75.4 -38.71 95.92 -52.5 89.02 -62.75 125.26 -87.11 132.15 -76.85 152.67 -90.64 173.57 -59.53 147.6 -42.08 137.25 -57.46 111.94 -40.45 156.42 25.73 181.74 8.72 171.39 -6.67 197.37 -24.13 218.28 6.98 197.76 20.77 204.65 31.02 168.42 55.38"/>
        <path class="cls-5" d="M124.33-82.4l6.78,10.09,20.52-13.79,17.24,25.64-20.52,13.79-10.23-15.22-30.77,20.68,48.15,71.64,30.77-20.68-10.34-15.39,20.52-13.79,17.13,25.48-20.52,13.79,6.89,10.26-30.61,20.57-6.89-10.26-20.52,13.79-61.83-91.99,20.52-13.79-6.89-10.26,30.61-20.57M126.12-91.53l-5.44,3.66-30.65,20.6-5.44,3.66,3.69,5.49,3.21,4.77-15.06,10.12-5.46,3.67,3.66,5.45,61.84,92.01,3.66,5.45,5.3-3.56,15.05-10.12,3.22,4.79,3.68,5.47,5.46-3.67,30.77-20.68,5.46-3.67-3.68-5.47-3.22-4.79,15.06-10.12,5.46-3.67-3.66-5.44-17.15-25.51-3.66-5.44-5.46,3.67-20.51,13.79-5.46,3.67,3.69,5.5,6.65,9.89-19.85,13.34-40.81-60.72,19.85-13.34,6.56,9.75,3.67,5.47,5.46-3.67,20.51-13.79,5.46-3.67-3.67-5.47-17.23-25.63-3.67-5.47-5.52,3.71-14.99,10.08-3.17-4.71-3.62-5.38h0Z"/>
        <path class="cls-4" d="M124.33-82.4l6.78,10.09,20.52-13.79,17.24,25.64-20.52,13.79-10.23-15.22-30.77,20.68,48.15,71.64,30.77-20.68-10.34-15.39,20.52-13.79,17.13,25.48-20.52,13.79,6.89,10.26-30.61,20.57-6.89-10.26-20.52,13.79-61.83-91.99,20.52-13.79-6.89-10.26,30.61-20.57M125.26-87.11l-2.8,1.88-30.63,20.59-2.8,1.88,1.91,2.84,4.98,7.41-17.7,11.9-2.81,1.89,1.89,2.81,61.83,92,1.89,2.81,2.65-1.78,17.7-11.9,5,7.44,1.89,2.82,2.81-1.89,30.77-20.68,2.81-1.89-1.89-2.82-5-7.44,17.7-11.9,2.81-1.89-1.88-2.8-17.14-25.5-1.88-2.8-2.81,1.89-20.52,13.79-2.81,1.89,1.91,2.85,8.43,12.54-25.15,16.9-44.37-66.01,25.15-16.9,8.34,12.4,1.89,2.82,2.81-1.89,20.52-13.79,2.81-1.89-1.89-2.82-17.23-25.64-1.89-2.82-2.89,1.95-17.62,11.84-4.92-7.32-1.86-2.77h0Z"/>
      </g>
      <g>
        <path class="cls-3" d="M537.86-1.23l-2.53,3.68,5.41,3.73-18.63,27.07-7.36-5.07-2.53,3.68-10.83-7.45,2.53-3.68-7.36-5.07,9.99-14.51,7.36,5.07-7.6,11.04,10.83,7.45,15.05-21.87-10.83-7.45,5.07-7.36,10.83,7.45,12.52-18.19-10.83-7.45-6.41,9.31-7.36-5.07,8.79-12.78,7.36,5.07,2.53-3.68,10.83,7.45-2.53,3.68,7.36,5.07-16.25,23.6-5.41-3.73h0Z"/>
        <g>
          <polygon class="cls-3" points="293.3 13.29 302.54 -.13 275.69 -18.61 363.63 -146.36 390.48 -127.88 399.72 -141.31 447.14 -108.67 437.9 -95.24 464.75 -76.76 436.73 -36.05 402.73 -59.45 416.6 -79.59 383.47 -102.39 323.85 -15.78 356.98 7.02 370.84 -13.12 404.83 10.28 376.81 50.99 349.96 32.51 340.72 45.94 293.3 13.29"/>
          <path class="cls-5" d="M440.93-107.52l-9.09,13.21,26.85,18.48-23.1,33.56-26.85-18.48,13.71-19.92-40.27-27.72L317.63-14.64l40.27,27.72,13.86-20.14,26.85,18.48-22.95,33.35-26.85-18.48-9.24,13.42-40.06-27.57,9.24-13.42-26.85-18.48,82.87-120.39,26.85,18.48,9.24-13.42,40.06,27.57M452.99-109.75l-7.12-4.9-40.11-27.61-7.12-4.9-4.94,7.18-4.3,6.24-19.7-13.56-7.15-4.92-4.91,7.14-82.88,120.41-4.91,7.14,6.93,4.77,19.7,13.56-4.31,6.27-4.93,7.16,7.15,4.92,40.27,27.72,7.15,4.92,4.93-7.16,4.31-6.27,19.7,13.56,7.15,4.92,4.9-7.12,22.98-33.39,4.9-7.12-7.15-4.92-26.85-18.48-7.15-4.92-4.95,7.19-8.91,12.95-25.98-17.89,54.7-79.47,25.98,17.89-8.79,12.77-4.93,7.16,7.15,4.92,26.85,18.48,7.15,4.92,4.93-7.16,23.09-33.54,4.93-7.16-7.23-4.97-19.62-13.51,4.24-6.16,4.85-7.04h0Z"/>
          <path class="cls-4" d="M440.93-107.52l-9.09,13.21,26.85,18.48-23.1,33.56-26.85-18.48,13.71-19.92-40.27-27.72L317.63-14.64l40.27,27.72,13.86-20.14,26.85,18.48-22.95,33.35-26.85-18.48-9.24,13.42-40.06-27.57,9.24-13.42-26.85-18.48,82.87-120.39,26.85,18.48,9.24-13.42,40.06,27.57M447.14-108.67l-3.66-2.52-40.09-27.6-3.66-2.52-2.56,3.72-6.68,9.7-23.17-15.95-3.68-2.53-2.53,3.68-82.88,120.4-2.53,3.68,3.47,2.39L302.33-.28l-6.7,9.74-2.54,3.69,3.68,2.53,40.27,27.72,3.68,2.53,2.54-3.69,6.7-9.74,23.17,15.95,3.68,2.53,2.52-3.67,22.97-33.37,2.52-3.67-3.68-2.53-26.85-18.48-3.68-2.53-2.57,3.73-11.3,16.41-32.91-22.65,59.47-86.4,32.91,22.65-11.17,16.23-2.54,3.69,3.68,2.53,26.85,18.48,3.68,2.53,2.54-3.69,23.09-33.55,2.54-3.69-3.79-2.61-23.06-15.87,6.59-9.58,2.5-3.63h0Z"/>
        </g>
      </g>
      <g>
        <path class="cls-2" d="M411.89,134.5l14.96,3.26-4.04,18.54-7.15-1.56-4.04,18.54-14.96-3.26,4.04-18.54,7.15,1.56,4.04-18.54h0ZM446.71,118.59l-4.9,22.44-14.96-3.26,4.9-22.44,14.96,3.26ZM460.21,164.47l-4.04,18.54-14.96-3.26,4.04-18.54-7.48-1.63,4.04-18.54,14.96,3.26-4.04,18.54,7.48,1.63Z"/>
        <path class="cls-3" d="M503.04,186.76l-1.21,5.53,8.13,1.77-8.87,40.65-11.06-2.41-1.21,5.53-16.26-3.55,1.21-5.53-11.06-2.41,4.75-21.79,11.06,2.41-3.62,16.59,16.26,3.55,7.17-32.85-16.26-3.55,2.41-11.06,16.26,3.55,5.96-27.32-16.26-3.55-3.05,13.98-11.06-2.41,4.19-19.19,11.06,2.41,1.21-5.53,16.26,3.55-1.21,5.53,11.06,2.41-7.73,35.45-8.13-1.77h0Z"/>
        <g>
          <polygon class="cls-3" points="223.36 320.95 227.76 300.78 187.43 291.99 229.3 100.11 269.62 108.91 274.02 88.75 345.24 104.29 340.84 124.45 381.17 133.25 367.83 194.39 316.77 183.25 323.37 153.01 273.61 142.15 245.23 272.23 294.99 283.09 301.59 252.84 352.64 263.98 339.3 325.12 298.98 316.32 294.58 336.49 223.36 320.95"/>
          <path class="cls-5" d="M338.51,108.61l-4.33,19.84,40.33,8.8-11,50.41-40.33-8.8,6.53-29.92-60.49-13.2-30.72,140.81,60.49,13.2,6.6-30.24,40.33,8.8-10.93,50.08-40.33-8.8-4.4,20.16-60.16-13.13,4.4-20.16-40.33-8.8,39.45-180.81,40.33,8.8,4.4-20.16,60.16,13.13M351.58,100.22l-10.69-2.33-60.25-13.15-10.69-2.33-2.35,10.78-2.05,9.38-29.59-6.46-10.73-2.34-2.34,10.72-39.46,180.85-2.34,10.72,10.41,2.27,29.59,6.46-2.05,9.41-2.35,10.75,10.73,2.34,60.49,13.2,10.73,2.34,2.35-10.75,2.05-9.41,29.59,6.46,10.73,2.34,2.33-10.7,10.94-50.15,2.33-10.7-10.73-2.34-40.32-8.8-10.73-2.34-2.36,10.8-4.24,19.44-39.02-8.51,26.04-119.35,39.02,8.51-4.18,19.17-2.34,10.75,10.73,2.34,40.32,8.8,10.73,2.34,2.34-10.75,10.99-50.38,2.34-10.75-10.85-2.37-29.47-6.43,2.02-9.26,2.31-10.58h0Z"/>
          <path class="cls-4" d="M338.51,108.61l-4.33,19.84,40.33,8.8-11,50.41-40.33-8.8,6.53-29.92-60.49-13.2-30.72,140.81,60.49,13.2,6.6-30.24,40.33,8.8-10.93,50.08-40.33-8.8-4.4,20.16-60.16-13.13,4.4-20.16-40.33-8.8,39.45-180.81,40.33,8.8,4.4-20.16,60.16,13.13M345.24,104.29l-5.5-1.2-60.21-13.14-5.5-1.2-1.22,5.59-3.18,14.57-34.8-7.59-5.53-1.21-1.2,5.52-39.46,180.83-1.2,5.52,5.21,1.14,34.8,7.59-3.19,14.62-1.21,5.54,5.53,1.21,60.49,13.2,5.53,1.21,1.21-5.54,3.19-14.62,34.8,7.59,5.53,1.21,1.2-5.51,10.94-50.12,1.2-5.51-5.53-1.21-40.32-8.8-5.53-1.21-1.22,5.6-5.38,24.65-49.43-10.79,28.31-129.76,49.43,10.79-5.32,24.38-1.21,5.54,5.53,1.21,40.32,8.8,5.53,1.21,1.21-5.54,10.99-50.39,1.21-5.54-5.69-1.24-34.64-7.56,3.14-14.39,1.19-5.45h0Z"/>
        </g>
      </g>
      <g>
        <path class="cls-2" d="M45.51,108.49l8.51-1.82,2.26,10.54-4.07.87,2.26,10.54-8.51,1.82-2.26-10.54,4.07-.87-2.26-10.54h0ZM59.79,92.08l2.73,12.76-8.51,1.82-2.73-12.76,8.51-1.82ZM77.54,112.65l2.26,10.54-8.51,1.82-2.26-10.54-4.25.91-2.26-10.54,8.51-1.82,2.26,10.54,4.25-.91Z"/>
        <path class="cls-3" d="M104.94,114.14l.67,3.14,4.62-.99,4.95,23.12-6.29,1.35.67,3.14-9.25,1.98-.67-3.14-6.29,1.35-2.65-12.39,6.29-1.35,2.02,9.43,9.25-1.98-4-18.68-9.25,1.98-1.35-6.29,9.25-1.98-3.33-15.54-9.25,1.98,1.7,7.95-6.29,1.35-2.34-10.91,6.29-1.35-.67-3.14,9.25-1.98.67,3.14,6.29-1.35,4.32,20.16-4.62.99h0Z"/>
        <g>
          <polygon class="cls-3" points="-8.31 249.22 -10.76 237.76 -33.7 242.67 -57.06 133.54 -34.13 128.63 -36.58 117.17 3.92 108.49 6.38 119.96 29.31 115.05 36.76 149.82 7.72 156.04 4.04 138.84 -24.26 144.9 -8.42 218.88 19.88 212.82 16.19 195.62 45.23 189.4 52.68 224.17 29.74 229.08 32.2 240.55 -8.31 249.22"/>
          <path class="cls-5" d="M1.45,112.31l2.42,11.28,22.93-4.91,6.14,28.67-22.93,4.91-3.64-17.02-34.4,7.37,17.15,80.08,34.4-7.37-3.68-17.2,22.93-4.91,6.1,28.48-22.93,4.91,2.46,11.47-34.22,7.33-2.46-11.47-22.93,4.91-22.02-102.83,22.93-4.91-2.46-11.47L1.45,112.31M6.25,104.9l-6.08,1.3-34.26,7.34-6.08,1.3,1.31,6.13,1.14,5.33-16.83,3.6-6.1,1.31,1.3,6.09,22.02,102.85,1.3,6.09,5.92-1.27,16.83-3.6,1.15,5.35,1.31,6.12,6.1-1.31,34.4-7.37,6.1-1.31-1.31-6.12-1.15-5.35,16.83-3.6,6.1-1.31-1.3-6.08-6.11-28.52-1.3-6.08-6.1,1.31-22.93,4.91-6.1,1.31,1.32,6.14,2.37,11.06-22.19,4.75-14.53-67.88,22.19-4.75,2.33,10.9,1.31,6.11,6.1-1.31,22.93-4.91,6.1-1.31-1.31-6.11-6.13-28.65-1.31-6.11-6.17,1.32-16.76,3.59-1.13-5.27-1.29-6.02h0Z"/>
          <path class="cls-4" d="M1.45,112.31l2.42,11.28,22.93-4.91,6.14,28.67-22.93,4.91-3.64-17.02-34.4,7.37,17.15,80.08,34.4-7.37-3.68-17.2,22.93-4.91,6.1,28.48-22.93,4.91,2.46,11.47-34.22,7.33-2.46-11.47-22.93,4.91-22.02-102.83,22.93-4.91-2.46-11.47L1.45,112.31M3.92,108.49l-3.13.67-34.24,7.33-3.13.67.68,3.18,1.77,8.29-19.79,4.24-3.14.67.67,3.14,22.02,102.84.67,3.14,2.96-.63,19.79-4.24,1.78,8.32.67,3.15,3.14-.67,34.4-7.37,3.14-.67-.67-3.15-1.78-8.32,19.79-4.24,3.14-.67-.67-3.13-6.1-28.51-.67-3.13-3.14.67-22.93,4.91-3.14.67.68,3.18,3,14.02-28.11,6.02-15.8-73.8,28.11-6.02,2.97,13.87.67,3.15,3.14-.67,22.93-4.91,3.14-.67-.67-3.15-6.14-28.66-.67-3.15-3.24.69-19.7,4.22-1.75-8.18-.66-3.1h0Z"/>
        </g>
      </g>
      <g>
        <path class="cls-2" d="M131.38,337.51l12.22,4.14-5.13,15.14-5.84-1.98-5.13,15.14-12.22-4.14,5.13-15.14,5.84,1.98,5.13-15.14h0ZM162.03,327.47l-6.21,18.33-12.22-4.14,6.21-18.33,12.22,4.14ZM169.02,367.15l-5.13,15.14-12.22-4.14,5.13-15.14-6.11-2.07,5.13-15.14,12.22,4.14-5.13,15.14,6.11,2.07Z"/>
        <path class="cls-3" d="M202.78,389.86l-1.53,4.52,6.64,2.25-11.26,33.21-9.03-3.06-1.53,4.52-13.28-4.5,1.53-4.52-9.03-3.06,6.03-17.8,9.03,3.06-4.59,13.55,13.28,4.5,9.1-26.83-13.28-4.5,3.06-9.03,13.28,4.5,7.56-22.31-13.28-4.5-3.87,11.42-9.03-3.06,5.31-15.67,9.03,3.06,1.53-4.52,13.28,4.5-1.53,4.52,9.03,3.06-9.82,28.96-6.64-2.25h0Z"/>
        <g>
          <polygon class="cls-3" points="-44.07 475.89 -38.48 459.42 -71.42 448.25 -18.29 291.52 14.65 302.68 20.23 286.21 78.41 305.93 72.82 322.4 105.76 333.57 88.83 383.51 47.13 369.37 55.5 344.67 14.86 330.89 -21.16 437.15 19.48 450.93 27.86 426.22 69.56 440.36 52.64 490.3 19.69 479.14 14.11 495.61 -44.07 475.89"/>
          <path class="cls-5" d="M72.36,308.92l-5.49,16.2,32.94,11.17-13.96,41.18-32.94-11.17,8.28-24.44-49.41-16.75-38.99,115.03,49.41,16.75,8.37-24.71,32.94,11.17-13.87,40.91-32.94-11.17-5.58,16.47-49.14-16.66,5.58-16.47-32.94-11.17L-15.31,297.56l32.94,11.17,5.58-16.47,49.14,16.66M84.1,303.12l-8.73-2.96-49.21-16.68-8.73-2.96-2.99,8.81-2.6,7.66-24.17-8.19-8.77-2.97-2.97,8.75-50.08,147.73-2.97,8.75,8.5,2.88,24.17,8.19-2.61,7.69-2.98,8.78,8.77,2.97,49.41,16.75,8.77,2.97,2.98-8.78,2.61-7.69,24.17,8.19,8.77,2.97,2.96-8.74,13.89-40.97,2.96-8.74-8.77-2.97-32.94-11.17-8.77-2.97-2.99,8.82-5.38,15.88-31.88-10.81,33.05-97.49,31.88,10.81-5.31,15.66-2.98,8.78,8.77,2.97,32.94,11.17,8.77,2.97,2.98-8.78,13.95-41.15,2.98-8.78-8.86-3-24.08-8.16,2.56-7.56,2.93-8.64h0Z"/>
          <path class="cls-4" d="M72.36,308.92l-5.49,16.2,32.94,11.17-13.96,41.18-32.94-11.17,8.28-24.44-49.41-16.75-38.99,115.03,49.41,16.75,8.37-24.71,32.94,11.17-13.87,40.91-32.94-11.17-5.58,16.47-49.14-16.66,5.58-16.47-32.94-11.17L-15.31,297.56l32.94,11.17,5.58-16.47,49.14,16.66M78.41,305.93l-4.5-1.52-49.18-16.67-4.5-1.52-1.55,4.57-4.04,11.9-28.42-9.64-4.52-1.53-1.53,4.51-50.07,147.71-1.53,4.51,4.25,1.44,28.42,9.63-4.05,11.95-1.53,4.52,4.52,1.53,49.41,16.75,4.52,1.53,1.53-4.52,4.05-11.95,28.42,9.64,4.52,1.53,1.53-4.5,13.88-40.94,1.53-4.5-4.52-1.53-32.94-11.17-4.52-1.53-1.55,4.57-6.82,20.13-40.38-13.69,35.93-105.99,40.38,13.69-6.75,19.92-1.53,4.52,4.52,1.53,32.94,11.17,4.52,1.53,1.53-4.52,13.95-41.16,1.53-4.52-4.65-1.58-28.29-9.59,3.98-11.75,1.51-4.45h0Z"/>
        </g>
      </g>
      <g>
        <polygon class="cls-3" points="591.69 249.22 589.24 237.76 566.3 242.67 542.94 133.54 565.87 128.63 563.42 117.17 603.92 108.49 606.38 119.96 629.31 115.05 636.76 149.82 607.72 156.04 604.04 138.84 575.74 144.9 591.58 218.88 619.88 212.82 616.19 195.62 645.23 189.4 652.68 224.17 629.74 229.08 632.2 240.55 591.69 249.22"/>
        <path class="cls-5" d="M601.45,112.31l2.42,11.28,22.93-4.91,6.14,28.67-22.93,4.91-3.64-17.02-34.4,7.37,17.15,80.08,34.4-7.37-3.68-17.2,22.93-4.91,6.1,28.48-22.93,4.91,2.46,11.47-34.22,7.33-2.46-11.47-22.93,4.91-22.02-102.83,22.93-4.91-2.46-11.47,34.22-7.33M606.25,104.9l-6.08,1.3-34.26,7.34-6.08,1.3,1.31,6.13,1.14,5.33-16.83,3.6-6.1,1.31,1.3,6.09,22.02,102.85,1.3,6.09,5.92-1.27,16.83-3.6,1.15,5.35,1.31,6.12,6.1-1.31,34.4-7.37,6.1-1.31-1.31-6.12-1.15-5.35,16.83-3.6,6.1-1.31-1.3-6.08-6.11-28.52-1.3-6.08-6.1,1.31-22.93,4.91-6.1,1.31,1.32,6.14,2.37,11.06-22.19,4.75-14.53-67.88,22.19-4.75,2.33,10.9,1.31,6.11,6.1-1.31,22.93-4.91,6.1-1.31-1.31-6.11-6.13-28.65-1.31-6.11-6.17,1.32-16.76,3.59-1.13-5.27-1.29-6.02h0Z"/>
        <path class="cls-4" d="M601.45,112.31l2.42,11.28,22.93-4.91,6.14,28.67-22.93,4.91-3.64-17.02-34.4,7.37,17.15,80.08,34.4-7.37-3.68-17.2,22.93-4.91,6.1,28.48-22.93,4.91,2.46,11.47-34.22,7.33-2.46-11.47-22.93,4.91-22.02-102.83,22.93-4.91-2.46-11.47,34.22-7.33M603.92,108.49l-3.13.67-34.24,7.33-3.13.67.68,3.18,1.77,8.29-19.79,4.24-3.14.67.67,3.14,22.02,102.84.67,3.14,2.96-.63,19.79-4.24,1.78,8.32.67,3.15,3.14-.67,34.4-7.37,3.14-.67-.67-3.15-1.78-8.32,19.79-4.24,3.14-.67-.67-3.13-6.1-28.51-.67-3.13-3.14.67-22.93,4.91-3.14.67.68,3.18,3,14.02-28.11,6.02-15.8-73.8,28.11-6.02,2.97,13.87.67,3.15,3.14-.67,22.93-4.91,3.14-.67-.67-3.15-6.14-28.66-.67-3.15-3.24.69-19.7,4.22-1.75-8.18-.66-3.1h0Z"/>
      </g>
      <g>
        <polygon class="cls-3" points="555.93 475.89 561.52 459.42 528.58 448.25 581.71 291.52 614.65 302.68 620.23 286.21 678.41 305.93 672.82 322.4 705.76 333.57 688.83 383.51 647.13 369.37 655.5 344.67 614.86 330.89 578.84 437.15 619.48 450.93 627.86 426.22 669.56 440.36 652.64 490.3 619.69 479.14 614.11 495.61 555.93 475.89"/>
        <path class="cls-5" d="M672.36,308.92l-5.49,16.2,32.94,11.17-13.96,41.18-32.94-11.17,8.28-24.44-49.41-16.75-38.99,115.03,49.41,16.75,8.37-24.71,32.94,11.17-13.87,40.91-32.94-11.17-5.58,16.47-49.14-16.66,5.58-16.47-32.94-11.17,50.07-147.7,32.94,11.17,5.58-16.47,49.14,16.66M684.1,303.12l-8.73-2.96-49.21-16.68-8.73-2.96-2.99,8.81-2.6,7.66-24.17-8.19-8.77-2.97-2.97,8.75-50.08,147.73-2.97,8.75,8.5,2.88,24.17,8.19-2.61,7.69-2.98,8.78,8.77,2.97,49.41,16.75,8.77,2.97,2.98-8.78,2.61-7.69,24.17,8.19,8.77,2.97,2.96-8.74,13.89-40.97,2.96-8.74-8.77-2.97-32.94-11.17-8.77-2.97-2.99,8.82-5.38,15.88-31.88-10.81,33.05-97.49,31.88,10.81-5.31,15.66-2.98,8.78,8.77,2.97,32.94,11.17,8.77,2.97,2.98-8.78,13.95-41.15,2.98-8.78-8.86-3-24.08-8.16,2.56-7.56,2.93-8.64h0Z"/>
        <path class="cls-4" d="M672.36,308.92l-5.49,16.2,32.94,11.17-13.96,41.18-32.94-11.17,8.28-24.44-49.41-16.75-38.99,115.03,49.41,16.75,8.37-24.71,32.94,11.17-13.87,40.91-32.94-11.17-5.58,16.47-49.14-16.66,5.58-16.47-32.94-11.17,50.07-147.7,32.94,11.17,5.58-16.47,49.14,16.66M678.41,305.93l-4.5-1.52-49.18-16.67-4.5-1.52-1.55,4.57-4.04,11.9-28.42-9.64-4.52-1.53-1.53,4.51-50.07,147.71-1.53,4.51,4.25,1.44,28.42,9.63-4.05,11.95-1.53,4.52,4.52,1.53,49.41,16.75,4.52,1.53,1.53-4.52,4.05-11.95,28.42,9.64,4.52,1.53,1.53-4.5,13.88-40.94,1.53-4.5-4.52-1.53-32.94-11.17-4.52-1.53-1.55,4.57-6.82,20.13-40.38-13.69,35.93-105.99,40.38,13.69-6.75,19.92-1.53,4.52,4.52,1.53,32.94,11.17,4.52,1.53,1.53-4.52,13.95-41.16,1.53-4.52-4.65-1.58-28.29-9.59,3.98-11.75,1.51-4.45h0Z"/>
      </g>
    </g>
  </g>
</svg>